<?xml version="1.0" encoding="utf-8"?>
<!-- Generator: Adobe Illustrator 19.1.0, SVG Export Plug-In . SVG Version: 6.00 Build 0)  -->
<svg version="1.1" id="Livello_1" xmlns="http://www.w3.org/2000/svg" xmlns:xlink="http://www.w3.org/1999/xlink" x="0px" y="0px"
	 viewBox="0 0 625 216" style="enable-background:new 0 0 625 216;" xml:space="preserve">
<style type="text/css">
	.st0{opacity:0.5;fill:#FFFFFF;}
	.st1{fill:#FFFFFF;}
</style>
<g>
	<polygon class="st0" points="182,72 227,72 281,216 236,216 	"/>
	<polygon class="st0" points="290,72 335,72 389,216 344,216 	"/>
	<polygon class="st0" points="398,72 443,72 497,216 452,216 	"/>
	<g>
		<g>
			<path class="st0" d="M173,216l-29-77.3v5.3c0,20.9-8.9,39.7-23.2,52.9L128,216H173z"/>
			<path class="st1" d="M99,77.1C91.3,74,82.8,72.2,74,72c-0.7,0-1.3,0-2,0c-39.8,0-72,32.3-72,72s32.2,72,72,72
				c18.8,0,36-7.2,48.8-19.1c14.2-13.2,23.2-32,23.2-52.9v-5.3V0H99v72v63v9c0,14.9-12.1,27-27,27c-14.9,0-27-12.1-27-27
				c0-14.9,12.1-27,27-27c14.9,0,27,12.1,27,27V77.1z"/>
		</g>
	</g>
	<g>
		<path class="st1" d="M452,216l29-77.3v5.3c0,20.9,8.9,39.7,23.2,52.9L497,216H452z"/>
		<path class="st1" d="M526,144c0-14.9,12.1-27,27-27c14.9,0,27,12.1,27,27c0,14.9-12.1,27-27,27C538.1,171,526,158.9,526,144v-9V72
			V0h-45v138.7v5.3c0,20.9,8.9,39.7,23.2,52.9c12.8,11.9,30,19.1,48.8,19.1c39.8,0,72-32.2,72-72s-32.2-72-72-72c-0.7,0-1.3,0-2,0
			c-8.8,0.2-17,2-25,5.1V144z"/>
	</g>
	<polygon class="st1" points="128,216 173,216 227,72 182,72 	"/>
	<polygon class="st1" points="236,216 281,216 335,72 290,72 	"/>
	<polygon class="st1" points="344,216 389,216 443,72 398,72 	"/>
</g>
</svg>
