<?xml version="1.0" encoding="utf-8"?>
<!-- Generator: Adobe Illustrator 19.1.0, SVG Export Plug-In . SVG Version: 6.00 Build 0)  -->
<svg version="1.1" id="Livello_1" xmlns="http://www.w3.org/2000/svg" xmlns:xlink="http://www.w3.org/1999/xlink" x="0px" y="0px"
	 viewBox="-539 301 200 200" style="enable-background:new -539 301 200 200;" xml:space="preserve">
<style type="text/css">
	.st0{fill:#FFFFFF;}
</style>
<rect x="-527" y="313" shape-rendering="optimizeSpeed" class="st0" width="7" height="7"/>
<rect x="-520" y="313" shape-rendering="optimizeSpeed" class="st0" width="7" height="7"/>
<rect x="-513" y="313" shape-rendering="optimizeSpeed" class="st0" width="7" height="7"/>
<rect x="-506" y="313" shape-rendering="optimizeSpeed" class="st0" width="7" height="7"/>
<rect x="-499" y="313" shape-rendering="optimizeSpeed" class="st0" width="7" height="7"/>
<rect x="-492" y="313" shape-rendering="optimizeSpeed" class="st0" width="7" height="7"/>
<rect x="-485" y="313" shape-rendering="optimizeSpeed" class="st0" width="7" height="7"/>
<rect x="-457" y="313" shape-rendering="optimizeSpeed" class="st0" width="7" height="7"/>
<rect x="-443" y="313" shape-rendering="optimizeSpeed" class="st0" width="7" height="7"/>
<rect x="-415" y="313" shape-rendering="optimizeSpeed" class="st0" width="7" height="7"/>
<rect x="-401" y="313" shape-rendering="optimizeSpeed" class="st0" width="7" height="7"/>
<rect x="-394" y="313" shape-rendering="optimizeSpeed" class="st0" width="7" height="7"/>
<rect x="-387" y="313" shape-rendering="optimizeSpeed" class="st0" width="7" height="7"/>
<rect x="-380" y="313" shape-rendering="optimizeSpeed" class="st0" width="7" height="7"/>
<rect x="-373" y="313" shape-rendering="optimizeSpeed" class="st0" width="7" height="7"/>
<rect x="-366" y="313" shape-rendering="optimizeSpeed" class="st0" width="7" height="7"/>
<rect x="-359" y="313" shape-rendering="optimizeSpeed" class="st0" width="7" height="7"/>
<rect x="-527" y="320" shape-rendering="optimizeSpeed" class="st0" width="7" height="7"/>
<rect x="-485" y="320" shape-rendering="optimizeSpeed" class="st0" width="7" height="7"/>
<rect x="-471" y="320" shape-rendering="optimizeSpeed" class="st0" width="7" height="7"/>
<rect x="-457" y="320" shape-rendering="optimizeSpeed" class="st0" width="7" height="7"/>
<rect x="-422" y="320" shape-rendering="optimizeSpeed" class="st0" width="7" height="7"/>
<rect x="-401" y="320" shape-rendering="optimizeSpeed" class="st0" width="7" height="7"/>
<rect x="-359" y="320" shape-rendering="optimizeSpeed" class="st0" width="7" height="7"/>
<rect x="-527" y="327" shape-rendering="optimizeSpeed" class="st0" width="7" height="7"/>
<rect x="-513" y="327" shape-rendering="optimizeSpeed" class="st0" width="7" height="7"/>
<rect x="-506" y="327" shape-rendering="optimizeSpeed" class="st0" width="7" height="7"/>
<rect x="-499" y="327" shape-rendering="optimizeSpeed" class="st0" width="7" height="7"/>
<rect x="-485" y="327" shape-rendering="optimizeSpeed" class="st0" width="7" height="7"/>
<rect x="-443" y="327" shape-rendering="optimizeSpeed" class="st0" width="7" height="7"/>
<rect x="-429" y="327" shape-rendering="optimizeSpeed" class="st0" width="7" height="7"/>
<rect x="-415" y="327" shape-rendering="optimizeSpeed" class="st0" width="7" height="7"/>
<rect x="-401" y="327" shape-rendering="optimizeSpeed" class="st0" width="7" height="7"/>
<rect x="-387" y="327" shape-rendering="optimizeSpeed" class="st0" width="7" height="7"/>
<rect x="-380" y="327" shape-rendering="optimizeSpeed" class="st0" width="7" height="7"/>
<rect x="-373" y="327" shape-rendering="optimizeSpeed" class="st0" width="7" height="7"/>
<rect x="-359" y="327" shape-rendering="optimizeSpeed" class="st0" width="7" height="7"/>
<rect x="-527" y="334" shape-rendering="optimizeSpeed" class="st0" width="7" height="7"/>
<rect x="-513" y="334" shape-rendering="optimizeSpeed" class="st0" width="7" height="7"/>
<rect x="-506" y="334" shape-rendering="optimizeSpeed" class="st0" width="7" height="7"/>
<rect x="-499" y="334" shape-rendering="optimizeSpeed" class="st0" width="7" height="7"/>
<rect x="-485" y="334" shape-rendering="optimizeSpeed" class="st0" width="7" height="7"/>
<rect x="-471" y="334" shape-rendering="optimizeSpeed" class="st0" width="7" height="7"/>
<rect x="-464" y="334" shape-rendering="optimizeSpeed" class="st0" width="7" height="7"/>
<rect x="-457" y="334" shape-rendering="optimizeSpeed" class="st0" width="7" height="7"/>
<rect x="-443" y="334" shape-rendering="optimizeSpeed" class="st0" width="7" height="7"/>
<rect x="-436" y="334" shape-rendering="optimizeSpeed" class="st0" width="7" height="7"/>
<rect x="-429" y="334" shape-rendering="optimizeSpeed" class="st0" width="7" height="7"/>
<rect x="-422" y="334" shape-rendering="optimizeSpeed" class="st0" width="7" height="7"/>
<rect x="-401" y="334" shape-rendering="optimizeSpeed" class="st0" width="7" height="7"/>
<rect x="-387" y="334" shape-rendering="optimizeSpeed" class="st0" width="7" height="7"/>
<rect x="-380" y="334" shape-rendering="optimizeSpeed" class="st0" width="7" height="7"/>
<rect x="-373" y="334" shape-rendering="optimizeSpeed" class="st0" width="7" height="7"/>
<rect x="-359" y="334" shape-rendering="optimizeSpeed" class="st0" width="7" height="7"/>
<rect x="-527" y="341" shape-rendering="optimizeSpeed" class="st0" width="7" height="7"/>
<rect x="-513" y="341" shape-rendering="optimizeSpeed" class="st0" width="7" height="7"/>
<rect x="-506" y="341" shape-rendering="optimizeSpeed" class="st0" width="7" height="7"/>
<rect x="-499" y="341" shape-rendering="optimizeSpeed" class="st0" width="7" height="7"/>
<rect x="-485" y="341" shape-rendering="optimizeSpeed" class="st0" width="7" height="7"/>
<rect x="-464" y="341" shape-rendering="optimizeSpeed" class="st0" width="7" height="7"/>
<rect x="-436" y="341" shape-rendering="optimizeSpeed" class="st0" width="7" height="7"/>
<rect x="-415" y="341" shape-rendering="optimizeSpeed" class="st0" width="7" height="7"/>
<rect x="-401" y="341" shape-rendering="optimizeSpeed" class="st0" width="7" height="7"/>
<rect x="-387" y="341" shape-rendering="optimizeSpeed" class="st0" width="7" height="7"/>
<rect x="-380" y="341" shape-rendering="optimizeSpeed" class="st0" width="7" height="7"/>
<rect x="-373" y="341" shape-rendering="optimizeSpeed" class="st0" width="7" height="7"/>
<rect x="-359" y="341" shape-rendering="optimizeSpeed" class="st0" width="7" height="7"/>
<rect x="-527" y="348" shape-rendering="optimizeSpeed" class="st0" width="7" height="7"/>
<rect x="-485" y="348" shape-rendering="optimizeSpeed" class="st0" width="7" height="7"/>
<rect x="-471" y="348" shape-rendering="optimizeSpeed" class="st0" width="7" height="7"/>
<rect x="-464" y="348" shape-rendering="optimizeSpeed" class="st0" width="7" height="7"/>
<rect x="-450" y="348" shape-rendering="optimizeSpeed" class="st0" width="7" height="7"/>
<rect x="-443" y="348" shape-rendering="optimizeSpeed" class="st0" width="7" height="7"/>
<rect x="-436" y="348" shape-rendering="optimizeSpeed" class="st0" width="7" height="7"/>
<rect x="-429" y="348" shape-rendering="optimizeSpeed" class="st0" width="7" height="7"/>
<rect x="-422" y="348" shape-rendering="optimizeSpeed" class="st0" width="7" height="7"/>
<rect x="-401" y="348" shape-rendering="optimizeSpeed" class="st0" width="7" height="7"/>
<rect x="-359" y="348" shape-rendering="optimizeSpeed" class="st0" width="7" height="7"/>
<rect x="-527" y="355" shape-rendering="optimizeSpeed" class="st0" width="7" height="7"/>
<rect x="-520" y="355" shape-rendering="optimizeSpeed" class="st0" width="7" height="7"/>
<rect x="-513" y="355" shape-rendering="optimizeSpeed" class="st0" width="7" height="7"/>
<rect x="-506" y="355" shape-rendering="optimizeSpeed" class="st0" width="7" height="7"/>
<rect x="-499" y="355" shape-rendering="optimizeSpeed" class="st0" width="7" height="7"/>
<rect x="-492" y="355" shape-rendering="optimizeSpeed" class="st0" width="7" height="7"/>
<rect x="-485" y="355" shape-rendering="optimizeSpeed" class="st0" width="7" height="7"/>
<rect x="-471" y="355" shape-rendering="optimizeSpeed" class="st0" width="7" height="7"/>
<rect x="-457" y="355" shape-rendering="optimizeSpeed" class="st0" width="7" height="7"/>
<rect x="-443" y="355" shape-rendering="optimizeSpeed" class="st0" width="7" height="7"/>
<rect x="-429" y="355" shape-rendering="optimizeSpeed" class="st0" width="7" height="7"/>
<rect x="-415" y="355" shape-rendering="optimizeSpeed" class="st0" width="7" height="7"/>
<rect x="-401" y="355" shape-rendering="optimizeSpeed" class="st0" width="7" height="7"/>
<rect x="-394" y="355" shape-rendering="optimizeSpeed" class="st0" width="7" height="7"/>
<rect x="-387" y="355" shape-rendering="optimizeSpeed" class="st0" width="7" height="7"/>
<rect x="-380" y="355" shape-rendering="optimizeSpeed" class="st0" width="7" height="7"/>
<rect x="-373" y="355" shape-rendering="optimizeSpeed" class="st0" width="7" height="7"/>
<rect x="-366" y="355" shape-rendering="optimizeSpeed" class="st0" width="7" height="7"/>
<rect x="-359" y="355" shape-rendering="optimizeSpeed" class="st0" width="7" height="7"/>
<rect x="-464" y="362" shape-rendering="optimizeSpeed" class="st0" width="7" height="7"/>
<rect x="-457" y="362" shape-rendering="optimizeSpeed" class="st0" width="7" height="7"/>
<rect x="-450" y="362" shape-rendering="optimizeSpeed" class="st0" width="7" height="7"/>
<rect x="-415" y="362" shape-rendering="optimizeSpeed" class="st0" width="7" height="7"/>
<rect x="-527" y="369" shape-rendering="optimizeSpeed" class="st0" width="7" height="7"/>
<rect x="-520" y="369" shape-rendering="optimizeSpeed" class="st0" width="7" height="7"/>
<rect x="-513" y="369" shape-rendering="optimizeSpeed" class="st0" width="7" height="7"/>
<rect x="-506" y="369" shape-rendering="optimizeSpeed" class="st0" width="7" height="7"/>
<rect x="-499" y="369" shape-rendering="optimizeSpeed" class="st0" width="7" height="7"/>
<rect x="-485" y="369" shape-rendering="optimizeSpeed" class="st0" width="7" height="7"/>
<rect x="-478" y="369" shape-rendering="optimizeSpeed" class="st0" width="7" height="7"/>
<rect x="-471" y="369" shape-rendering="optimizeSpeed" class="st0" width="7" height="7"/>
<rect x="-464" y="369" shape-rendering="optimizeSpeed" class="st0" width="7" height="7"/>
<rect x="-450" y="369" shape-rendering="optimizeSpeed" class="st0" width="7" height="7"/>
<rect x="-443" y="369" shape-rendering="optimizeSpeed" class="st0" width="7" height="7"/>
<rect x="-436" y="369" shape-rendering="optimizeSpeed" class="st0" width="7" height="7"/>
<rect x="-429" y="369" shape-rendering="optimizeSpeed" class="st0" width="7" height="7"/>
<rect x="-422" y="369" shape-rendering="optimizeSpeed" class="st0" width="7" height="7"/>
<rect x="-408" y="369" shape-rendering="optimizeSpeed" class="st0" width="7" height="7"/>
<rect x="-394" y="369" shape-rendering="optimizeSpeed" class="st0" width="7" height="7"/>
<rect x="-380" y="369" shape-rendering="optimizeSpeed" class="st0" width="7" height="7"/>
<rect x="-366" y="369" shape-rendering="optimizeSpeed" class="st0" width="7" height="7"/>
<rect x="-520" y="376" shape-rendering="optimizeSpeed" class="st0" width="7" height="7"/>
<rect x="-513" y="376" shape-rendering="optimizeSpeed" class="st0" width="7" height="7"/>
<rect x="-506" y="376" shape-rendering="optimizeSpeed" class="st0" width="7" height="7"/>
<rect x="-492" y="376" shape-rendering="optimizeSpeed" class="st0" width="7" height="7"/>
<rect x="-471" y="376" shape-rendering="optimizeSpeed" class="st0" width="7" height="7"/>
<rect x="-457" y="376" shape-rendering="optimizeSpeed" class="st0" width="7" height="7"/>
<rect x="-443" y="376" shape-rendering="optimizeSpeed" class="st0" width="7" height="7"/>
<rect x="-415" y="376" shape-rendering="optimizeSpeed" class="st0" width="7" height="7"/>
<rect x="-394" y="376" shape-rendering="optimizeSpeed" class="st0" width="7" height="7"/>
<rect x="-366" y="376" shape-rendering="optimizeSpeed" class="st0" width="7" height="7"/>
<rect x="-527" y="383" shape-rendering="optimizeSpeed" class="st0" width="7" height="7"/>
<rect x="-520" y="383" shape-rendering="optimizeSpeed" class="st0" width="7" height="7"/>
<rect x="-499" y="383" shape-rendering="optimizeSpeed" class="st0" width="7" height="7"/>
<rect x="-492" y="383" shape-rendering="optimizeSpeed" class="st0" width="7" height="7"/>
<rect x="-485" y="383" shape-rendering="optimizeSpeed" class="st0" width="7" height="7"/>
<rect x="-457" y="383" shape-rendering="optimizeSpeed" class="st0" width="7" height="7"/>
<rect x="-429" y="383" shape-rendering="optimizeSpeed" class="st0" width="7" height="7"/>
<rect x="-422" y="383" shape-rendering="optimizeSpeed" class="st0" width="7" height="7"/>
<rect x="-415" y="383" shape-rendering="optimizeSpeed" class="st0" width="7" height="7"/>
<rect x="-408" y="383" shape-rendering="optimizeSpeed" class="st0" width="7" height="7"/>
<rect x="-401" y="383" shape-rendering="optimizeSpeed" class="st0" width="7" height="7"/>
<rect x="-387" y="383" shape-rendering="optimizeSpeed" class="st0" width="7" height="7"/>
<rect x="-380" y="383" shape-rendering="optimizeSpeed" class="st0" width="7" height="7"/>
<rect x="-366" y="383" shape-rendering="optimizeSpeed" class="st0" width="7" height="7"/>
<rect x="-359" y="383" shape-rendering="optimizeSpeed" class="st0" width="7" height="7"/>
<rect x="-520" y="390" shape-rendering="optimizeSpeed" class="st0" width="7" height="7"/>
<rect x="-513" y="390" shape-rendering="optimizeSpeed" class="st0" width="7" height="7"/>
<rect x="-506" y="390" shape-rendering="optimizeSpeed" class="st0" width="7" height="7"/>
<rect x="-499" y="390" shape-rendering="optimizeSpeed" class="st0" width="7" height="7"/>
<rect x="-478" y="390" shape-rendering="optimizeSpeed" class="st0" width="7" height="7"/>
<rect x="-471" y="390" shape-rendering="optimizeSpeed" class="st0" width="7" height="7"/>
<rect x="-429" y="390" shape-rendering="optimizeSpeed" class="st0" width="7" height="7"/>
<rect x="-415" y="390" shape-rendering="optimizeSpeed" class="st0" width="7" height="7"/>
<rect x="-401" y="390" shape-rendering="optimizeSpeed" class="st0" width="7" height="7"/>
<rect x="-394" y="390" shape-rendering="optimizeSpeed" class="st0" width="7" height="7"/>
<rect x="-387" y="390" shape-rendering="optimizeSpeed" class="st0" width="7" height="7"/>
<rect x="-359" y="390" shape-rendering="optimizeSpeed" class="st0" width="7" height="7"/>
<rect x="-527" y="397" shape-rendering="optimizeSpeed" class="st0" width="7" height="7"/>
<rect x="-513" y="397" shape-rendering="optimizeSpeed" class="st0" width="7" height="7"/>
<rect x="-506" y="397" shape-rendering="optimizeSpeed" class="st0" width="7" height="7"/>
<rect x="-485" y="397" shape-rendering="optimizeSpeed" class="st0" width="7" height="7"/>
<rect x="-478" y="397" shape-rendering="optimizeSpeed" class="st0" width="7" height="7"/>
<rect x="-471" y="397" shape-rendering="optimizeSpeed" class="st0" width="7" height="7"/>
<rect x="-464" y="397" shape-rendering="optimizeSpeed" class="st0" width="7" height="7"/>
<rect x="-457" y="397" shape-rendering="optimizeSpeed" class="st0" width="7" height="7"/>
<rect x="-450" y="397" shape-rendering="optimizeSpeed" class="st0" width="7" height="7"/>
<rect x="-443" y="397" shape-rendering="optimizeSpeed" class="st0" width="7" height="7"/>
<rect x="-436" y="397" shape-rendering="optimizeSpeed" class="st0" width="7" height="7"/>
<rect x="-429" y="397" shape-rendering="optimizeSpeed" class="st0" width="7" height="7"/>
<rect x="-408" y="397" shape-rendering="optimizeSpeed" class="st0" width="7" height="7"/>
<rect x="-401" y="397" shape-rendering="optimizeSpeed" class="st0" width="7" height="7"/>
<rect x="-387" y="397" shape-rendering="optimizeSpeed" class="st0" width="7" height="7"/>
<rect x="-373" y="397" shape-rendering="optimizeSpeed" class="st0" width="7" height="7"/>
<rect x="-366" y="397" shape-rendering="optimizeSpeed" class="st0" width="7" height="7"/>
<rect x="-359" y="397" shape-rendering="optimizeSpeed" class="st0" width="7" height="7"/>
<rect x="-527" y="404" shape-rendering="optimizeSpeed" class="st0" width="7" height="7"/>
<rect x="-513" y="404" shape-rendering="optimizeSpeed" class="st0" width="7" height="7"/>
<rect x="-506" y="404" shape-rendering="optimizeSpeed" class="st0" width="7" height="7"/>
<rect x="-492" y="404" shape-rendering="optimizeSpeed" class="st0" width="7" height="7"/>
<rect x="-471" y="404" shape-rendering="optimizeSpeed" class="st0" width="7" height="7"/>
<rect x="-450" y="404" shape-rendering="optimizeSpeed" class="st0" width="7" height="7"/>
<rect x="-436" y="404" shape-rendering="optimizeSpeed" class="st0" width="7" height="7"/>
<rect x="-415" y="404" shape-rendering="optimizeSpeed" class="st0" width="7" height="7"/>
<rect x="-408" y="404" shape-rendering="optimizeSpeed" class="st0" width="7" height="7"/>
<rect x="-394" y="404" shape-rendering="optimizeSpeed" class="st0" width="7" height="7"/>
<rect x="-380" y="404" shape-rendering="optimizeSpeed" class="st0" width="7" height="7"/>
<rect x="-366" y="404" shape-rendering="optimizeSpeed" class="st0" width="7" height="7"/>
<rect x="-527" y="411" shape-rendering="optimizeSpeed" class="st0" width="7" height="7"/>
<rect x="-513" y="411" shape-rendering="optimizeSpeed" class="st0" width="7" height="7"/>
<rect x="-506" y="411" shape-rendering="optimizeSpeed" class="st0" width="7" height="7"/>
<rect x="-485" y="411" shape-rendering="optimizeSpeed" class="st0" width="7" height="7"/>
<rect x="-478" y="411" shape-rendering="optimizeSpeed" class="st0" width="7" height="7"/>
<rect x="-464" y="411" shape-rendering="optimizeSpeed" class="st0" width="7" height="7"/>
<rect x="-457" y="411" shape-rendering="optimizeSpeed" class="st0" width="7" height="7"/>
<rect x="-429" y="411" shape-rendering="optimizeSpeed" class="st0" width="7" height="7"/>
<rect x="-422" y="411" shape-rendering="optimizeSpeed" class="st0" width="7" height="7"/>
<rect x="-401" y="411" shape-rendering="optimizeSpeed" class="st0" width="7" height="7"/>
<rect x="-394" y="411" shape-rendering="optimizeSpeed" class="st0" width="7" height="7"/>
<rect x="-380" y="411" shape-rendering="optimizeSpeed" class="st0" width="7" height="7"/>
<rect x="-366" y="411" shape-rendering="optimizeSpeed" class="st0" width="7" height="7"/>
<rect x="-359" y="411" shape-rendering="optimizeSpeed" class="st0" width="7" height="7"/>
<rect x="-527" y="418" shape-rendering="optimizeSpeed" class="st0" width="7" height="7"/>
<rect x="-513" y="418" shape-rendering="optimizeSpeed" class="st0" width="7" height="7"/>
<rect x="-506" y="418" shape-rendering="optimizeSpeed" class="st0" width="7" height="7"/>
<rect x="-499" y="418" shape-rendering="optimizeSpeed" class="st0" width="7" height="7"/>
<rect x="-492" y="418" shape-rendering="optimizeSpeed" class="st0" width="7" height="7"/>
<rect x="-478" y="418" shape-rendering="optimizeSpeed" class="st0" width="7" height="7"/>
<rect x="-464" y="418" shape-rendering="optimizeSpeed" class="st0" width="7" height="7"/>
<rect x="-457" y="418" shape-rendering="optimizeSpeed" class="st0" width="7" height="7"/>
<rect x="-450" y="418" shape-rendering="optimizeSpeed" class="st0" width="7" height="7"/>
<rect x="-422" y="418" shape-rendering="optimizeSpeed" class="st0" width="7" height="7"/>
<rect x="-415" y="418" shape-rendering="optimizeSpeed" class="st0" width="7" height="7"/>
<rect x="-380" y="418" shape-rendering="optimizeSpeed" class="st0" width="7" height="7"/>
<rect x="-359" y="418" shape-rendering="optimizeSpeed" class="st0" width="7" height="7"/>
<rect x="-527" y="425" shape-rendering="optimizeSpeed" class="st0" width="7" height="7"/>
<rect x="-513" y="425" shape-rendering="optimizeSpeed" class="st0" width="7" height="7"/>
<rect x="-499" y="425" shape-rendering="optimizeSpeed" class="st0" width="7" height="7"/>
<rect x="-492" y="425" shape-rendering="optimizeSpeed" class="st0" width="7" height="7"/>
<rect x="-485" y="425" shape-rendering="optimizeSpeed" class="st0" width="7" height="7"/>
<rect x="-457" y="425" shape-rendering="optimizeSpeed" class="st0" width="7" height="7"/>
<rect x="-450" y="425" shape-rendering="optimizeSpeed" class="st0" width="7" height="7"/>
<rect x="-443" y="425" shape-rendering="optimizeSpeed" class="st0" width="7" height="7"/>
<rect x="-436" y="425" shape-rendering="optimizeSpeed" class="st0" width="7" height="7"/>
<rect x="-429" y="425" shape-rendering="optimizeSpeed" class="st0" width="7" height="7"/>
<rect x="-422" y="425" shape-rendering="optimizeSpeed" class="st0" width="7" height="7"/>
<rect x="-415" y="425" shape-rendering="optimizeSpeed" class="st0" width="7" height="7"/>
<rect x="-408" y="425" shape-rendering="optimizeSpeed" class="st0" width="7" height="7"/>
<rect x="-401" y="425" shape-rendering="optimizeSpeed" class="st0" width="7" height="7"/>
<rect x="-394" y="425" shape-rendering="optimizeSpeed" class="st0" width="7" height="7"/>
<rect x="-387" y="425" shape-rendering="optimizeSpeed" class="st0" width="7" height="7"/>
<rect x="-373" y="425" shape-rendering="optimizeSpeed" class="st0" width="7" height="7"/>
<rect x="-471" y="432" shape-rendering="optimizeSpeed" class="st0" width="7" height="7"/>
<rect x="-450" y="432" shape-rendering="optimizeSpeed" class="st0" width="7" height="7"/>
<rect x="-436" y="432" shape-rendering="optimizeSpeed" class="st0" width="7" height="7"/>
<rect x="-415" y="432" shape-rendering="optimizeSpeed" class="st0" width="7" height="7"/>
<rect x="-387" y="432" shape-rendering="optimizeSpeed" class="st0" width="7" height="7"/>
<rect x="-380" y="432" shape-rendering="optimizeSpeed" class="st0" width="7" height="7"/>
<rect x="-373" y="432" shape-rendering="optimizeSpeed" class="st0" width="7" height="7"/>
<rect x="-527" y="439" shape-rendering="optimizeSpeed" class="st0" width="7" height="7"/>
<rect x="-520" y="439" shape-rendering="optimizeSpeed" class="st0" width="7" height="7"/>
<rect x="-513" y="439" shape-rendering="optimizeSpeed" class="st0" width="7" height="7"/>
<rect x="-506" y="439" shape-rendering="optimizeSpeed" class="st0" width="7" height="7"/>
<rect x="-499" y="439" shape-rendering="optimizeSpeed" class="st0" width="7" height="7"/>
<rect x="-492" y="439" shape-rendering="optimizeSpeed" class="st0" width="7" height="7"/>
<rect x="-485" y="439" shape-rendering="optimizeSpeed" class="st0" width="7" height="7"/>
<rect x="-471" y="439" shape-rendering="optimizeSpeed" class="st0" width="7" height="7"/>
<rect x="-464" y="439" shape-rendering="optimizeSpeed" class="st0" width="7" height="7"/>
<rect x="-457" y="439" shape-rendering="optimizeSpeed" class="st0" width="7" height="7"/>
<rect x="-429" y="439" shape-rendering="optimizeSpeed" class="st0" width="7" height="7"/>
<rect x="-415" y="439" shape-rendering="optimizeSpeed" class="st0" width="7" height="7"/>
<rect x="-401" y="439" shape-rendering="optimizeSpeed" class="st0" width="7" height="7"/>
<rect x="-387" y="439" shape-rendering="optimizeSpeed" class="st0" width="7" height="7"/>
<rect x="-380" y="439" shape-rendering="optimizeSpeed" class="st0" width="7" height="7"/>
<rect x="-373" y="439" shape-rendering="optimizeSpeed" class="st0" width="7" height="7"/>
<rect x="-366" y="439" shape-rendering="optimizeSpeed" class="st0" width="7" height="7"/>
<rect x="-359" y="439" shape-rendering="optimizeSpeed" class="st0" width="7" height="7"/>
<rect x="-527" y="446" shape-rendering="optimizeSpeed" class="st0" width="7" height="7"/>
<rect x="-485" y="446" shape-rendering="optimizeSpeed" class="st0" width="7" height="7"/>
<rect x="-464" y="446" shape-rendering="optimizeSpeed" class="st0" width="7" height="7"/>
<rect x="-457" y="446" shape-rendering="optimizeSpeed" class="st0" width="7" height="7"/>
<rect x="-450" y="446" shape-rendering="optimizeSpeed" class="st0" width="7" height="7"/>
<rect x="-443" y="446" shape-rendering="optimizeSpeed" class="st0" width="7" height="7"/>
<rect x="-415" y="446" shape-rendering="optimizeSpeed" class="st0" width="7" height="7"/>
<rect x="-387" y="446" shape-rendering="optimizeSpeed" class="st0" width="7" height="7"/>
<rect x="-380" y="446" shape-rendering="optimizeSpeed" class="st0" width="7" height="7"/>
<rect x="-366" y="446" shape-rendering="optimizeSpeed" class="st0" width="7" height="7"/>
<rect x="-527" y="453" shape-rendering="optimizeSpeed" class="st0" width="7" height="7"/>
<rect x="-513" y="453" shape-rendering="optimizeSpeed" class="st0" width="7" height="7"/>
<rect x="-506" y="453" shape-rendering="optimizeSpeed" class="st0" width="7" height="7"/>
<rect x="-499" y="453" shape-rendering="optimizeSpeed" class="st0" width="7" height="7"/>
<rect x="-485" y="453" shape-rendering="optimizeSpeed" class="st0" width="7" height="7"/>
<rect x="-471" y="453" shape-rendering="optimizeSpeed" class="st0" width="7" height="7"/>
<rect x="-457" y="453" shape-rendering="optimizeSpeed" class="st0" width="7" height="7"/>
<rect x="-443" y="453" shape-rendering="optimizeSpeed" class="st0" width="7" height="7"/>
<rect x="-436" y="453" shape-rendering="optimizeSpeed" class="st0" width="7" height="7"/>
<rect x="-429" y="453" shape-rendering="optimizeSpeed" class="st0" width="7" height="7"/>
<rect x="-422" y="453" shape-rendering="optimizeSpeed" class="st0" width="7" height="7"/>
<rect x="-415" y="453" shape-rendering="optimizeSpeed" class="st0" width="7" height="7"/>
<rect x="-408" y="453" shape-rendering="optimizeSpeed" class="st0" width="7" height="7"/>
<rect x="-401" y="453" shape-rendering="optimizeSpeed" class="st0" width="7" height="7"/>
<rect x="-394" y="453" shape-rendering="optimizeSpeed" class="st0" width="7" height="7"/>
<rect x="-387" y="453" shape-rendering="optimizeSpeed" class="st0" width="7" height="7"/>
<rect x="-380" y="453" shape-rendering="optimizeSpeed" class="st0" width="7" height="7"/>
<rect x="-373" y="453" shape-rendering="optimizeSpeed" class="st0" width="7" height="7"/>
<rect x="-527" y="460" shape-rendering="optimizeSpeed" class="st0" width="7" height="7"/>
<rect x="-513" y="460" shape-rendering="optimizeSpeed" class="st0" width="7" height="7"/>
<rect x="-506" y="460" shape-rendering="optimizeSpeed" class="st0" width="7" height="7"/>
<rect x="-499" y="460" shape-rendering="optimizeSpeed" class="st0" width="7" height="7"/>
<rect x="-485" y="460" shape-rendering="optimizeSpeed" class="st0" width="7" height="7"/>
<rect x="-471" y="460" shape-rendering="optimizeSpeed" class="st0" width="7" height="7"/>
<rect x="-450" y="460" shape-rendering="optimizeSpeed" class="st0" width="7" height="7"/>
<rect x="-436" y="460" shape-rendering="optimizeSpeed" class="st0" width="7" height="7"/>
<rect x="-408" y="460" shape-rendering="optimizeSpeed" class="st0" width="7" height="7"/>
<rect x="-401" y="460" shape-rendering="optimizeSpeed" class="st0" width="7" height="7"/>
<rect x="-387" y="460" shape-rendering="optimizeSpeed" class="st0" width="7" height="7"/>
<rect x="-373" y="460" shape-rendering="optimizeSpeed" class="st0" width="7" height="7"/>
<rect x="-366" y="460" shape-rendering="optimizeSpeed" class="st0" width="7" height="7"/>
<rect x="-359" y="460" shape-rendering="optimizeSpeed" class="st0" width="7" height="7"/>
<rect x="-527" y="467" shape-rendering="optimizeSpeed" class="st0" width="7" height="7"/>
<rect x="-513" y="467" shape-rendering="optimizeSpeed" class="st0" width="7" height="7"/>
<rect x="-506" y="467" shape-rendering="optimizeSpeed" class="st0" width="7" height="7"/>
<rect x="-499" y="467" shape-rendering="optimizeSpeed" class="st0" width="7" height="7"/>
<rect x="-485" y="467" shape-rendering="optimizeSpeed" class="st0" width="7" height="7"/>
<rect x="-471" y="467" shape-rendering="optimizeSpeed" class="st0" width="7" height="7"/>
<rect x="-464" y="467" shape-rendering="optimizeSpeed" class="st0" width="7" height="7"/>
<rect x="-443" y="467" shape-rendering="optimizeSpeed" class="st0" width="7" height="7"/>
<rect x="-436" y="467" shape-rendering="optimizeSpeed" class="st0" width="7" height="7"/>
<rect x="-429" y="467" shape-rendering="optimizeSpeed" class="st0" width="7" height="7"/>
<rect x="-422" y="467" shape-rendering="optimizeSpeed" class="st0" width="7" height="7"/>
<rect x="-394" y="467" shape-rendering="optimizeSpeed" class="st0" width="7" height="7"/>
<rect x="-373" y="467" shape-rendering="optimizeSpeed" class="st0" width="7" height="7"/>
<rect x="-359" y="467" shape-rendering="optimizeSpeed" class="st0" width="7" height="7"/>
<rect x="-527" y="474" shape-rendering="optimizeSpeed" class="st0" width="7" height="7"/>
<rect x="-485" y="474" shape-rendering="optimizeSpeed" class="st0" width="7" height="7"/>
<rect x="-471" y="474" shape-rendering="optimizeSpeed" class="st0" width="7" height="7"/>
<rect x="-464" y="474" shape-rendering="optimizeSpeed" class="st0" width="7" height="7"/>
<rect x="-450" y="474" shape-rendering="optimizeSpeed" class="st0" width="7" height="7"/>
<rect x="-429" y="474" shape-rendering="optimizeSpeed" class="st0" width="7" height="7"/>
<rect x="-422" y="474" shape-rendering="optimizeSpeed" class="st0" width="7" height="7"/>
<rect x="-415" y="474" shape-rendering="optimizeSpeed" class="st0" width="7" height="7"/>
<rect x="-408" y="474" shape-rendering="optimizeSpeed" class="st0" width="7" height="7"/>
<rect x="-401" y="474" shape-rendering="optimizeSpeed" class="st0" width="7" height="7"/>
<rect x="-394" y="474" shape-rendering="optimizeSpeed" class="st0" width="7" height="7"/>
<rect x="-387" y="474" shape-rendering="optimizeSpeed" class="st0" width="7" height="7"/>
<rect x="-380" y="474" shape-rendering="optimizeSpeed" class="st0" width="7" height="7"/>
<rect x="-359" y="474" shape-rendering="optimizeSpeed" class="st0" width="7" height="7"/>
<rect x="-527" y="481" shape-rendering="optimizeSpeed" class="st0" width="7" height="7"/>
<rect x="-520" y="481" shape-rendering="optimizeSpeed" class="st0" width="7" height="7"/>
<rect x="-513" y="481" shape-rendering="optimizeSpeed" class="st0" width="7" height="7"/>
<rect x="-506" y="481" shape-rendering="optimizeSpeed" class="st0" width="7" height="7"/>
<rect x="-499" y="481" shape-rendering="optimizeSpeed" class="st0" width="7" height="7"/>
<rect x="-492" y="481" shape-rendering="optimizeSpeed" class="st0" width="7" height="7"/>
<rect x="-485" y="481" shape-rendering="optimizeSpeed" class="st0" width="7" height="7"/>
<rect x="-471" y="481" shape-rendering="optimizeSpeed" class="st0" width="7" height="7"/>
<rect x="-464" y="481" shape-rendering="optimizeSpeed" class="st0" width="7" height="7"/>
<rect x="-457" y="481" shape-rendering="optimizeSpeed" class="st0" width="7" height="7"/>
<rect x="-450" y="481" shape-rendering="optimizeSpeed" class="st0" width="7" height="7"/>
<rect x="-443" y="481" shape-rendering="optimizeSpeed" class="st0" width="7" height="7"/>
<rect x="-436" y="481" shape-rendering="optimizeSpeed" class="st0" width="7" height="7"/>
<rect x="-408" y="481" shape-rendering="optimizeSpeed" class="st0" width="7" height="7"/>
<rect x="-401" y="481" shape-rendering="optimizeSpeed" class="st0" width="7" height="7"/>
<rect x="-394" y="481" shape-rendering="optimizeSpeed" class="st0" width="7" height="7"/>
<rect x="-387" y="481" shape-rendering="optimizeSpeed" class="st0" width="7" height="7"/>
<rect x="-380" y="481" shape-rendering="optimizeSpeed" class="st0" width="7" height="7"/>
<rect x="-373" y="481" shape-rendering="optimizeSpeed" class="st0" width="7" height="7"/>
<rect x="-366" y="481" shape-rendering="optimizeSpeed" class="st0" width="7" height="7"/>
<rect x="-359" y="481" shape-rendering="optimizeSpeed" class="st0" width="7" height="7"/>
<text color="gray"
  x="-439" y="400"
  style="font-weight: bold; text-anchor: middle; stroke:none; fill:gray;"
  transform="rotate(-45, -439, 400)">Ticket Not Yet Active</text>
</svg>
