<?xml version="1.0" encoding="utf-8"?>
<!-- Generator: Adobe Illustrator 21.0.0, SVG Export Plug-In . SVG Version: 6.00 Build 0)  -->
<svg version="1.1" id="Livello_1" xmlns="http://www.w3.org/2000/svg" xmlns:xlink="http://www.w3.org/1999/xlink" x="0px" y="0px"
	 viewBox="0 0 442.7 91.1" style="enable-background:new 0 0 442.7 91.1;" xml:space="preserve">
<style type="text/css">
	.st0{fill-rule:evenodd;clip-rule:evenodd;fill:none;stroke:#FFFFFF;stroke-miterlimit:10;}
	.st1{fill:none;stroke:#FFFFFF;stroke-miterlimit:10;}
	.st2{fill:#FFFFFF;}
	.st3{fill:none;stroke:#FFFFFF;stroke-width:2;stroke-miterlimit:10;stroke-dasharray:6,6;}
</style>
<g>
	<g>
		<path class="st0" d="M39.3,19.9c0,10.7-19.4,37-19.4,37S0.5,30.6,0.5,19.9S9.2,0.5,19.9,0.5S39.3,9.2,39.3,19.9z"/>
		<g>
			<path class="st1" d="M15.3,24.5l-1.8,4.2h-3.3l8.1-18.5h3.3l8.1,18.5h-3.3l-1.8-4.2H15.3z M23.2,21.6L19.9,14l-3.4,7.6H23.2z"/>
		</g>
	</g>
	<g>
		<path class="st0" d="M442.2,19.9c0,10.7-19.4,37-19.4,37s-19.4-26.3-19.4-37s8.7-19.4,19.4-19.4S442.2,9.2,442.2,19.9z"/>
		<g>
			<g>
				<path class="st2" d="M422.6,9.6c1.3,0,2.4,0.2,3.3,0.5c0.9,0.3,1.6,0.7,2.1,1.3c0.9,1,1.3,2.1,1.3,3.3c0,1.5-0.5,2.6-1.4,3.3
					c-0.3,0.3-0.6,0.4-0.7,0.5c-0.1,0.1-0.4,0.2-0.7,0.3c1.2,0.3,2.1,0.8,2.8,1.6c0.7,0.8,1,1.8,1,3c0,1.3-0.5,2.5-1.4,3.5
					c-1.1,1.2-2.9,1.8-5.5,1.8h-8.3v-19H422.6 M418.4,17.5h4.1c2.3,0,3.5-0.8,3.5-2.4c0-0.9-0.3-1.6-0.8-2c-0.6-0.4-1.4-0.6-2.6-0.6
					h-4.1V17.5 M418.4,25.7h5c1.2,0,2.1-0.2,2.7-0.6c0.6-0.4,0.9-1.1,0.9-2.1c0-1.7-1.4-2.5-4.1-2.5h-4.6V25.7 M422.6,8.6h-7.4h-1v1
					v19v1h1h8.3c2.9,0,5-0.7,6.2-2.1c1.1-1.2,1.6-2.6,1.6-4.2c0-1.4-0.4-2.7-1.3-3.7c-0.4-0.4-0.8-0.8-1.3-1.1
					c1-0.9,1.6-2.2,1.6-3.9c0-1.5-0.5-2.8-1.6-4c-0.6-0.7-1.4-1.2-2.5-1.5C425.2,8.8,424,8.6,422.6,8.6L422.6,8.6z M419.4,13.6h3.1
					c1.2,0,1.8,0.2,2,0.4c0.1,0.1,0.4,0.3,0.4,1.1c0,0.4,0,1.4-2.5,1.4h-3.1V13.6L419.4,13.6z M419.4,21.5h3.6
					c3.1,0,3.1,1.1,3.1,1.5c0,1-0.3,1.2-0.4,1.2c-0.3,0.2-1,0.4-2.2,0.4h-4V21.5L419.4,21.5z"/>
			</g>
		</g>
	</g>
	<g>
		<g>
			<line class="st3" x1="322.4" y1="85.2" x2="423.1" y2="85.2"/>
			<g>
				<g>
					<circle class="st2" cx="322.4" cy="85.2" r="5.3"/>
					<path class="st2" d="M322.4,91.1c3.3,0,6-2.7,6-6s-2.7-6-6-6c-3.3,0-6,2.7-6,6S319.1,91.1,322.4,91.1
						C325.7,91.1,319.1,91.1,322.4,91.1z M322.4,80.6c2.5,0,4.6,2,4.6,4.6s-2,4.6-4.6,4.6c-2.5,0-4.6-2-4.6-4.6
						S319.9,80.6,322.4,80.6C324.9,80.6,319.9,80.6,322.4,80.6z"/>
				</g>
			</g>
			<g>
				<g>
					<circle class="st2" cx="423.2" cy="85.2" r="5.3"/>
					<path class="st2" d="M423.1,91.1c-3.3,0-6-2.7-6-6s2.7-6,6-6c3.3,0,6,2.7,6,6S426.4,91.1,423.1,91.1
						C419.9,91.1,426.4,91.1,423.1,91.1z M423.1,80.6c-2.5,0-4.6,2-4.6,4.6s2,4.6,4.6,4.6c2.5,0,4.6-2,4.6-4.6
						S425.7,80.6,423.1,80.6C420.6,80.6,425.7,80.6,423.1,80.6z"/>
				</g>
			</g>
		</g>
	</g>
	<g>
		<g>
			<line class="st3" x1="221.6" y1="85.2" x2="322.4" y2="85.2"/>
			<g>
				<g>
					<circle class="st2" cx="221.6" cy="85.2" r="5.3"/>
					<path class="st2" d="M221.6,91.1c3.3,0,6-2.7,6-6s-2.7-6-6-6c-3.3,0-6,2.7-6,6S218.4,91.1,221.6,91.1
						C224.9,91.1,218.4,91.1,221.6,91.1z M221.6,80.6c2.5,0,4.6,2,4.6,4.6s-2,4.6-4.6,4.6c-2.5,0-4.6-2-4.6-4.6
						S219.1,80.6,221.6,80.6C224.2,80.6,219.1,80.6,221.6,80.6z"/>
				</g>
			</g>
			<g>
				<g>
					<circle class="st2" cx="322.4" cy="85.2" r="5.3"/>
					<path class="st2" d="M322.4,91.1c-3.3,0-6-2.7-6-6s2.7-6,6-6c3.3,0,6,2.7,6,6S325.7,91.1,322.4,91.1
						C319.1,91.1,325.7,91.1,322.4,91.1z M322.4,80.6c-2.5,0-4.6,2-4.6,4.6s2,4.6,4.6,4.6c2.5,0,4.6-2,4.6-4.6
						S324.9,80.6,322.4,80.6C319.9,80.6,324.9,80.6,322.4,80.6z"/>
				</g>
			</g>
		</g>
	</g>
	<g>
		<g>
			<polyline class="st3" points="115.8,85.2 164.6,85.2 221.6,85.2 			"/>
			<g>
				<g>
					<circle class="st2" cx="115.8" cy="85.2" r="5.3"/>
					<path class="st2" d="M115.8,91.1c3.3,0,6-2.7,6-6s-2.7-6-6-6c-3.3,0-6,2.7-6,6S112.5,91.1,115.8,91.1
						C119.1,91.1,112.5,91.1,115.8,91.1z M115.8,80.6c2.5,0,4.6,2,4.6,4.6s-2,4.6-4.6,4.6c-2.5,0-4.6-2-4.6-4.6
						S113.3,80.6,115.8,80.6C118.3,80.6,113.3,80.6,115.8,80.6z"/>
				</g>
			</g>
			<g>
				<g>
					<circle class="st2" cx="221.7" cy="85.2" r="5.3"/>
					<path class="st2" d="M221.6,91.1c-3.3,0-6-2.7-6-6s2.7-6,6-6c3.3,0,6,2.7,6,6S224.9,91.1,221.6,91.1
						C218.4,91.1,224.9,91.1,221.6,91.1z M221.6,80.6c-2.5,0-4.6,2-4.6,4.6s2,4.6,4.6,4.6c2.5,0,4.6-2,4.6-4.6
						S224.2,80.6,221.6,80.6C219.1,80.6,224.2,80.6,221.6,80.6z"/>
				</g>
			</g>
		</g>
	</g>
	<g>
		<g>
			<line class="st3" x1="20.1" y1="85.2" x2="115.8" y2="85.2"/>
			<g>
				<g>
					<circle class="st2" cx="20.1" cy="85.2" r="5.3"/>
					<path class="st2" d="M20.1,91.1c3.3,0,6-2.7,6-6s-2.7-6-6-6c-3.3,0-6,2.7-6,6S16.9,91.1,20.1,91.1
						C23.4,91.1,16.9,91.1,20.1,91.1z M20.1,80.6c2.5,0,4.6,2,4.6,4.6s-2,4.6-4.6,4.6c-2.5,0-4.6-2-4.6-4.6S17.6,80.6,20.1,80.6
						C22.7,80.6,17.6,80.6,20.1,80.6z"/>
				</g>
			</g>
			<g>
				<g>
					<circle class="st2" cx="115.8" cy="85.2" r="5.3"/>
					<path class="st2" d="M115.8,91.1c-3.3,0-6-2.7-6-6s2.7-6,6-6c3.3,0,6,2.7,6,6S119.1,91.1,115.8,91.1
						C112.5,91.1,119.1,91.1,115.8,91.1z M115.8,80.6c-2.5,0-4.6,2-4.6,4.6s2,4.6,4.6,4.6c2.5,0,4.6-2,4.6-4.6
						S118.3,80.6,115.8,80.6C113.3,80.6,118.3,80.6,115.8,80.6z"/>
				</g>
			</g>
		</g>
	</g>
	<g>
		<path class="st1" d="M115.7,24.7c-7.4,0-14.7,0.9-14.7,7.4v17.5c0,3.6,2.9,6.4,6.4,6.4l-2.8,2.8v0.9h4.1l3.7-3.7h6.9l3.7,3.7h3.7
			v-0.9l-2.8-2.8c3.6,0,6.4-2.9,6.4-6.4V32C130.4,25.6,123.8,24.7,115.7,24.7z M107.4,52.3c-1.5,0-2.8-1.2-2.8-2.8s1.2-2.8,2.8-2.8
			s2.8,1.2,2.8,2.8S108.9,52.3,107.4,52.3z M113.8,39.4h-9.2V32h9.2V39.4z M117.5,39.4V32h9.2v7.4H117.5z M123.9,52.3
			c-1.5,0-2.8-1.2-2.8-2.8s1.2-2.8,2.8-2.8s2.8,1.2,2.8,2.8S125.5,52.3,123.9,52.3z"/>
	</g>
	<path class="st1" d="M307.2,50.8c0,1.6,0.7,3.1,1.9,4.1v3.3c0,1,0.8,1.9,1.9,1.9h1.9c1,0,1.9-0.8,1.9-1.9v-1.9h14.9v1.9
		c0,1,0.8,1.9,1.9,1.9h1.9c1,0,1.9-0.8,1.9-1.9V55c1.1-1,1.9-2.5,1.9-4.1V32.1c0-6.5-6.7-7.5-14.9-7.5s-14.9,0.9-14.9,7.5V50.8z
		 M313.7,52.7c-1.6,0-2.8-1.3-2.8-2.8s1.3-2.8,2.8-2.8c1.6,0,2.8,1.3,2.8,2.8S315.3,52.7,313.7,52.7z M330.6,52.7
		c-1.6,0-2.8-1.3-2.8-2.8s1.3-2.8,2.8-2.8s2.8,1.3,2.8,2.8S332.1,52.7,330.6,52.7z M333.4,41.5h-22.4v-9.3h22.4V41.5z"/>
	<path class="st1" d="M235.4,57.8c-2.3,0-4.6-0.8-6.6-2.2c-4,2.8-9.2,2.8-13.3,0c-2,1.4-4.3,2.2-6.6,2.2h-3.3v3.3h3.3
		c2.3,0,4.5-0.6,6.6-1.6c4.2,2.1,9.1,2.1,13.3,0c2.1,1.1,4.3,1.6,6.6,1.6h3.3v-3.3H235.4z M208.8,54.5L208.8,54.5
		c2.7,0,5.1-1.5,6.7-3.3c1.6,1.9,4,3.3,6.6,3.3c2.7,0,5-1.5,6.6-3.3c1.6,1.9,4,3.3,6.6,3.3h0.1l3.1-11.1c0.1-0.4,0.1-0.9-0.1-1.3
		c-0.2-0.4-0.6-0.7-1-0.8l-2.1-0.7V33c0-1.8-1.5-3.3-3.3-3.3h-5v-5h-10v5h-5c-1.8,0-3.3,1.5-3.3,3.3v7.7l-2.1,0.7
		c-0.4,0.1-0.8,0.4-1,0.8c-0.2,0.4-0.2,0.9-0.1,1.3L208.8,54.5z M212.2,33h19.9v6.6l-10-3.3l-10,3.3V33z"/>
</g>
</svg>
