<?xml version="1.0" encoding="utf-8"?>
<!-- Generator: Adobe Illustrator 21.0.0, SVG Export Plug-In . SVG Version: 6.00 Build 0)  -->
<svg version="1.1" id="Livello_1" xmlns="http://www.w3.org/2000/svg" xmlns:xlink="http://www.w3.org/1999/xlink" x="0px" y="0px"
	 viewBox="0 0 456.5 93.9" style="enable-background:new 0 0 456.5 93.9;" xml:space="preserve">
<style type="text/css">
	.st0{fill:#FFFFFF;}
	.st1{fill:none;stroke:#FFFFFF;stroke-miterlimit:10;}
</style>
<g>
	<g>
		<g>
			<g>
				<g>
					<g>
						<path class="st0" d="M71.8,10.7c0,0.4,0.1,0.8,0.3,1.2c0.4,0.6,1.1,1,1.8,1c0,0,0,0,0,0l0.2,0.3c-0.4,0.6-0.4,1.4,0,2.1
							c0.4,0.6,1.1,1,1.8,1c0,0,0,0,0,0l0.2,0.3c-0.1,0.2-0.2,0.3-0.2,0.5c-0.1,0.5-0.1,1.1,0.2,1.6c0.4,0.6,1.1,1,1.8,1
							c0,0,0,0,0,0L78,20c-1.4,1-2.3,2.5-2.8,4.1c-0.5,2-0.3,4.1,0.8,5.9c1.4,2.4,4,3.9,6.7,3.9c1,0,2-0.2,3-0.6l0.1,0.2
							c-0.4,0.6-0.4,1.4,0,2.1c0.4,0.6,1.1,1,1.8,1c0,0,0,0,0,0l0.2,0.3c-0.1,0.2-0.2,0.3-0.2,0.5c-0.1,0.5-0.1,1.1,0.2,1.6
							c0.4,0.6,1.1,1,1.8,1c0,0,0,0,0,0l0.2,0.3c-0.1,0.2-0.2,0.3-0.2,0.5c-0.1,0.5-0.1,1.1,0.2,1.6c0.2,0.4,0.6,0.7,1,0.9l-69.3,40
							c0.1-0.4,0-0.9-0.3-1.3c-0.4-0.6-1.1-1-1.8-1c0,0,0,0,0,0l-0.2-0.3c0.4-0.6,0.4-1.4,0-2.1c-0.4-0.6-1.1-1-1.8-1c0,0,0,0,0,0
							l-0.2-0.3c0.4-0.6,0.4-1.4,0-2.1c-0.4-0.6-1.1-1-1.8-1c0,0,0,0,0,0l-0.1-0.1c3-2.3,4-6.6,2-10c-1.4-2.4-4-3.9-6.7-3.9
							c-1,0-2,0.2-3,0.6l-0.1-0.2c0.4-0.6,0.4-1.4,0-2.1c-0.4-0.6-1-1-1.8-1c0,0,0,0,0,0L5.5,57c0.1-0.2,0.2-0.3,0.2-0.5
							c0.1-0.5,0.1-1.1-0.2-1.6c-0.4-0.6-1-1-1.8-1c0,0,0,0,0,0l-0.2-0.3c0.4-0.6,0.4-1.4,0-2.1c-0.2-0.4-0.5-0.7-0.9-0.8L71.8,10.7
							 M29.3,76.6l0.9-0.5l49.9-28.8l0.9-0.5l-0.5-0.9L64.4,18.1l-0.5-0.9l-0.9,0.5L13.1,46.6l-0.9,0.5l0.5,0.9l16.1,27.8L29.3,76.6
							 M72.8,9L0.7,50.6l0.6,1c0.2-0.1,0.3-0.1,0.5-0.1c0.4,0,0.7,0.2,0.9,0.5c0.3,0.5,0.1,1.2-0.4,1.4L3.2,55
							c0.2-0.1,0.3-0.1,0.5-0.1c0.4,0,0.7,0.2,0.9,0.5c0.3,0.5,0.1,1.2-0.4,1.4l0.9,1.6c0.2-0.1,0.3-0.1,0.5-0.1
							c0.4,0,0.7,0.2,0.9,0.5C7,59.3,6.8,60,6.3,60.3l0.9,1.6c1.1-0.6,2.2-0.9,3.4-0.9c2.3,0,4.6,1.2,5.8,3.4
							c1.9,3.2,0.8,7.4-2.5,9.2l0.9,1.6c0.2-0.1,0.3-0.1,0.5-0.1c0.4,0,0.7,0.2,0.9,0.5c0.3,0.5,0.1,1.2-0.4,1.4l0.9,1.6
							c0.2-0.1,0.4-0.1,0.5-0.1c0.4,0,0.7,0.2,0.9,0.5c0.3,0.5,0.1,1.2-0.4,1.4l0.9,1.6c0.2-0.1,0.3-0.1,0.5-0.1
							c0.4,0,0.7,0.2,0.9,0.5c0.3,0.5,0.1,1.2-0.4,1.4l0.6,1l72.1-41.6l-0.6-1c-0.2,0.1-0.3,0.1-0.5,0.1c-0.4,0-0.7-0.2-0.9-0.5
							c-0.3-0.5-0.1-1.2,0.4-1.4L90,38.8c-0.2,0.1-0.3,0.1-0.5,0.1c-0.4,0-0.7-0.2-0.9-0.5c-0.3-0.5-0.1-1.2,0.4-1.4L88,35.4
							c-0.2,0.1-0.3,0.1-0.5,0.1c-0.4,0-0.7-0.2-0.9-0.5c-0.3-0.5-0.1-1.2,0.4-1.4L86,31.9c-1.1,0.6-2.2,0.9-3.4,0.9
							c-2.3,0-4.6-1.2-5.8-3.4c-1.9-3.2-0.8-7.4,2.5-9.2l-0.9-1.6c-0.2,0.1-0.3,0.1-0.5,0.1c-0.4,0-0.7-0.2-0.9-0.5
							c-0.3-0.5-0.1-1.2,0.4-1.4l-0.9-1.6c-0.2,0.1-0.3,0.1-0.5,0.1c-0.4,0-0.7-0.2-0.9-0.5c-0.3-0.5-0.1-1.1,0.4-1.4l-0.9-1.6
							c-0.2,0.1-0.3,0.1-0.5,0.1c-0.4,0-0.7-0.2-0.9-0.5c-0.3-0.5-0.1-1.2,0.4-1.4L72.8,9L72.8,9z M29.7,75.3L13.6,47.4l49.9-28.8
							l16.1,27.8L29.7,75.3L29.7,75.3z"/>
					</g>
				</g>
			</g>
			<g>
				<path class="st0" d="M37.9,39.1l1.3,2.2l-16.5,9.5l-1.3-2.2L37.9,39.1 M38.2,37.7L20,48.3l2.3,3.9l18.3-10.5L38.2,37.7
					L38.2,37.7z"/>
			</g>
			<g>
				<path class="st0" d="M41.4,45.7l0.3,0.5l-16.3,9.4l-0.3-0.5L41.4,45.7 M41.8,44.3L23.7,54.7L25,57l18.1-10.4L41.8,44.3
					L41.8,44.3z"/>
			</g>
			<g>
				<path class="st0" d="M43.9,50l0.3,0.5l-16.3,9.4l-0.3-0.5L43.9,50 M44.2,48.6L26.2,59l1.3,2.3l18.1-10.4L44.2,48.6L44.2,48.6z"
					/>
			</g>
			<g>
				<path class="st0" d="M46.4,54.3l0.3,0.5l-16.3,9.4L30,63.7L46.4,54.3 M46.7,52.9L28.7,63.3l1.3,2.3L48,55.2L46.7,52.9L46.7,52.9
					z"/>
			</g>
			<g>
				<path class="st0" d="M44.8,60.9l0.3,0.5l-12.3,7.1L32.5,68L44.8,60.9 M45.2,59.5l-14,8.1l1.3,2.3l14-8.1L45.2,59.5L45.2,59.5z"
					/>
			</g>
		</g>
		<g>
			<path class="st1" d="M51.5,30.1c-4.5,2.6-8.7,5.7-6.4,9.7l6.2,10.7c1.3,2.2,4,2.9,6.2,1.7l-0.7,2.7l0.3,0.6l2.5-1.4l0.9-3.5
				l4.2-2.4l3.5,0.9l2.2-1.3L70.3,47l-2.7-0.7c2.2-1.3,2.9-4,1.7-6.2l-6.2-10.7C60.8,25.5,56.5,27.3,51.5,30.1z M56.2,49.9
				c-0.9,0.5-2.1,0.2-2.7-0.7s-0.2-2.1,0.7-2.7s2.1-0.2,2.7,0.7C57.5,48.2,57.1,49.3,56.2,49.9z M55.6,39.8L50,43l-2.6-4.5l5.6-3.2
				L55.6,39.8z M57.8,38.5L55.3,34l5.6-3.2l2.6,4.5L57.8,38.5z M66.3,44c-0.9,0.5-2.1,0.2-2.7-0.7c-0.5-0.9-0.2-2.1,0.7-2.7
				c0.9-0.5,2.1-0.2,2.7,0.7S67.2,43.5,66.3,44z"/>
		</g>
	</g>
	<g>
		<g>
			<g>
				<g>
					<g>
						<path class="st0" d="M207.6,10.7c0,0.4,0.1,0.8,0.3,1.2c0.4,0.6,1.1,1,1.8,1c0,0,0,0,0,0l0.2,0.3c-0.4,0.6-0.4,1.4,0,2.1
							c0.4,0.6,1.1,1,1.8,1c0,0,0,0,0,0l0.2,0.3c-0.4,0.6-0.4,1.4,0,2.1c0.4,0.6,1.1,1,1.8,1c0,0,0,0,0,0l0.1,0.2
							c-1.4,1-2.3,2.5-2.8,4.1c-0.5,2-0.3,4.1,0.8,5.9c1.4,2.4,4,3.9,6.7,3.9c1,0,2-0.2,3-0.6l0.1,0.2c-0.4,0.6-0.4,1.4,0,2.1
							c0.4,0.6,1.1,1,1.8,1c0,0,0,0,0,0l0.2,0.3c-0.4,0.6-0.4,1.4,0,2.1c0.4,0.6,1.1,1,1.8,1c0,0,0,0,0,0l0.2,0.3
							c-0.1,0.2-0.2,0.3-0.2,0.5c-0.1,0.5-0.1,1.1,0.2,1.6c0.2,0.4,0.6,0.7,1,0.9l-69.3,40c0.1-0.4,0-0.9-0.3-1.3
							c-0.4-0.6-1.1-1-1.8-1c0,0,0,0,0,0l-0.2-0.3c0.4-0.6,0.4-1.4,0-2.1c-0.4-0.6-1.1-1-1.8-1c0,0,0,0,0,0l-0.2-0.3
							c0.4-0.6,0.4-1.4,0-2.1c-0.4-0.6-1.1-1-1.8-1c0,0,0,0,0,0l-0.1-0.1c1.4-1,2.3-2.5,2.8-4.1c0.5-2,0.3-4.1-0.8-5.9
							c-1.4-2.4-4-3.9-6.7-3.9c-1,0-2,0.2-3,0.6l-0.1-0.2c0.4-0.6,0.4-1.4,0-2.1c-0.4-0.6-1-1-1.8-1c0,0,0,0,0,0l-0.2-0.3
							c0.1-0.2,0.2-0.3,0.2-0.5c0.1-0.5,0.1-1.1-0.2-1.6c-0.4-0.6-1-1-1.8-1c0,0,0,0,0,0l-0.2-0.3c0.4-0.6,0.4-1.4,0-2.1
							c-0.2-0.4-0.5-0.7-0.9-0.8L207.6,10.7 M165.1,76.6l0.9-0.5l49.9-28.8l0.9-0.5l-0.5-0.9l-16.1-27.8l-0.5-0.9l-0.9,0.5
							l-49.9,28.8l-0.9,0.5l0.5,0.9l16.1,27.8L165.1,76.6 M208.5,9l-72.1,41.6l0.6,1c0.2-0.1,0.3-0.1,0.5-0.1c0.4,0,0.7,0.2,0.9,0.5
							c0.3,0.5,0.1,1.2-0.4,1.4L139,55c0.2-0.1,0.3-0.1,0.5-0.1c0.4,0,0.7,0.2,0.9,0.5c0.3,0.5,0.1,1.2-0.4,1.4l0.9,1.6
							c0.2-0.1,0.3-0.1,0.5-0.1c0.4,0,0.7,0.2,0.9,0.5c0.3,0.5,0.1,1.2-0.4,1.4l0.9,1.6c1.1-0.6,2.2-0.9,3.4-0.9
							c2.3,0,4.6,1.2,5.8,3.4c1.9,3.2,0.8,7.4-2.5,9.2l0.9,1.6c0.2-0.1,0.3-0.1,0.5-0.1c0.4,0,0.7,0.2,0.9,0.5
							c0.3,0.5,0.1,1.2-0.4,1.4l0.9,1.6c0.2-0.1,0.4-0.1,0.5-0.1c0.4,0,0.7,0.2,0.9,0.5c0.3,0.5,0.1,1.2-0.4,1.4l0.9,1.6
							c0.2-0.1,0.3-0.1,0.5-0.1c0.4,0,0.7,0.2,0.9,0.5c0.3,0.5,0.1,1.2-0.4,1.4l0.6,1l72.1-41.6l-0.6-1c-0.2,0.1-0.3,0.1-0.5,0.1
							c-0.4,0-0.7-0.2-0.9-0.5c-0.3-0.5-0.1-1.2,0.4-1.4l-0.9-1.6c-0.2,0.1-0.3,0.1-0.5,0.1c-0.4,0-0.7-0.2-0.9-0.5
							c-0.3-0.5-0.1-1.2,0.4-1.4l-0.9-1.6c-0.2,0.1-0.3,0.1-0.5,0.1c-0.4,0-0.7-0.2-0.9-0.5c-0.3-0.5-0.1-1.2,0.4-1.4l-0.9-1.6
							c-1.1,0.6-2.2,0.9-3.4,0.9c-2.3,0-4.6-1.2-5.8-3.4c-1.9-3.2-0.8-7.4,2.5-9.2l-0.9-1.6c-0.2,0.1-0.3,0.1-0.5,0.1
							c-0.4,0-0.7-0.2-0.9-0.5c-0.3-0.5-0.1-1.2,0.4-1.4l-0.9-1.6c-0.2,0.1-0.3,0.1-0.5,0.1c-0.4,0-0.7-0.2-0.9-0.5
							c-0.3-0.5-0.1-1.1,0.4-1.4l-0.9-1.6c-0.2,0.1-0.3,0.1-0.5,0.1c-0.4,0-0.7-0.2-0.9-0.5c-0.3-0.5-0.1-1.2,0.4-1.4L208.5,9
							L208.5,9z M165.4,75.3l-16.1-27.8l49.9-28.8l16.1,27.8L165.4,75.3L165.4,75.3z"/>
					</g>
				</g>
			</g>
			<g>
				<path class="st0" d="M173.6,39.1l1.3,2.2l-16.5,9.5l-1.3-2.2L173.6,39.1 M174,37.7l-18.3,10.5l2.3,3.9l18.3-10.5L174,37.7
					L174,37.7z"/>
			</g>
			<g>
				<path class="st0" d="M177.1,45.7l0.3,0.5l-16.3,9.4l-0.3-0.5L177.1,45.7 M177.5,44.3l-18.1,10.4l1.3,2.3l18.1-10.4L177.5,44.3
					L177.5,44.3z"/>
			</g>
			<g>
				<path class="st0" d="M179.6,50l0.3,0.5l-16.3,9.4l-0.3-0.5L179.6,50 M180,48.6L161.9,59l1.3,2.3l18.1-10.4L180,48.6L180,48.6z"
					/>
			</g>
			<g>
				<path class="st0" d="M182.1,54.3l0.3,0.5l-16.3,9.4l-0.3-0.5L182.1,54.3 M182.5,52.9l-18.1,10.4l1.3,2.3l18.1-10.4L182.5,52.9
					L182.5,52.9z"/>
			</g>
			<g>
				<path class="st0" d="M180.5,60.9l0.3,0.5l-12.3,7.1l-0.3-0.5L180.5,60.9 M180.9,59.5l-14,8.1l1.3,2.3l14-8.1L180.9,59.5
					L180.9,59.5z"/>
			</g>
		</g>
		<path class="st1" d="M206,45.2c-1.3,0.8-2.9,1.1-4.5,0.9c-1.4,3-4.4,4.7-7.6,4.4c-0.7,1.5-1.8,2.7-3.1,3.5l-1.9,1.1l1.1,1.9
			l1.9-1.1c1.3-0.8,2.4-1.8,3.3-3.1c3.1-0.2,5.9-1.8,7.6-4.4c1.6-0.1,3-0.5,4.4-1.3L209,46l-1.1-1.9L206,45.2z M189.6,52.1
			L189.6,52.1c1.6-0.9,2.4-2.5,2.8-4.1c1.6,0.5,3.4,0.6,4.9-0.3c1.5-0.9,2.4-2.5,2.7-4.1c1.6,0.5,3.4,0.6,4.9-0.3l0,0l-1.9-7.4
			c-0.1-0.3-0.2-0.5-0.5-0.7c-0.2-0.2-0.6-0.2-0.8-0.1l-1.5,0.3l-2.5-4.4c-0.6-1-2-1.4-3-0.8l-2.9,1.7l-1.7-2.9l-5.7,3.3l1.7,2.9
			l-2.9,1.7c-1,0.6-1.4,2-0.8,3l2.5,4.4l-1,1.1c-0.2,0.2-0.3,0.5-0.3,0.8s0.1,0.6,0.4,0.8L189.6,52.1z M184.4,38.6l11.4-6.6l2.2,3.8
			l-6.8,1.4l-4.6,5.2L184.4,38.6z"/>
	</g>
	<g>
		<g>
			<g>
				<g>
					<g>
						<path class="st0" d="M343.3,10.7c0,0.4,0.1,0.8,0.3,1.2c0.4,0.6,1.1,1,1.8,1c0,0,0,0,0,0l0.2,0.3c-0.4,0.6-0.4,1.4,0,2.1
							c0.4,0.6,1.1,1,1.8,1c0,0,0,0,0,0l0.2,0.3c-0.4,0.6-0.4,1.4,0,2.1c0.4,0.6,1.1,1,1.8,1c0,0,0,0,0,0l0.1,0.2
							c-1.4,1-2.3,2.5-2.8,4.1c-0.5,2-0.3,4.1,0.8,5.9c1.4,2.4,4,3.9,6.7,3.9c1,0,2-0.2,3-0.6l0.1,0.2c-0.4,0.6-0.4,1.4,0,2.1
							c0.4,0.6,1.1,1,1.8,1c0,0,0,0,0,0l0.2,0.3c-0.4,0.6-0.4,1.4,0,2.1c0.4,0.6,1.1,1,1.8,1c0,0,0,0,0,0l0.2,0.3
							c-0.1,0.2-0.2,0.3-0.2,0.5c-0.1,0.5-0.1,1.1,0.2,1.6c0.2,0.4,0.6,0.7,1,0.9l-69.3,40c0.1-0.4,0-0.9-0.3-1.3
							c-0.4-0.6-1.1-1-1.8-1c0,0,0,0,0,0l-0.2-0.3c0.4-0.6,0.4-1.4,0-2.1c-0.4-0.6-1.1-1-1.8-1c0,0,0,0,0,0l-0.2-0.3
							c0.4-0.6,0.4-1.4,0-2.1c-0.4-0.6-1.1-1-1.8-1c0,0,0,0,0,0l-0.1-0.1c3-2.3,4-6.6,2-10c-1.4-2.4-4-3.9-6.7-3.9c-1,0-2,0.2-3,0.6
							l-0.1-0.2c0.4-0.6,0.4-1.4,0-2.1c-0.4-0.6-1-1-1.8-1c0,0,0,0,0,0L277,57c0.1-0.2,0.2-0.3,0.2-0.5c0.1-0.5,0.1-1.1-0.2-1.6
							c-0.4-0.6-1-1-1.8-1c0,0,0,0,0,0l-0.2-0.3c0.4-0.6,0.4-1.4,0-2.1c-0.2-0.4-0.5-0.7-0.9-0.8L343.3,10.7 M300.8,76.6l0.9-0.5
							l49.9-28.8l0.9-0.5l-0.5-0.9l-16.1-27.8l-0.5-0.9l-0.9,0.5l-49.9,28.8l-0.9,0.5l0.5,0.9l16.1,27.8L300.8,76.6 M344.2,9
							l-72.1,41.6l0.6,1c0.2-0.1,0.3-0.1,0.5-0.1c0.4,0,0.7,0.2,0.9,0.5c0.3,0.5,0.1,1.2-0.4,1.4l0.9,1.6c0.2-0.1,0.3-0.1,0.5-0.1
							c0.4,0,0.7,0.2,0.9,0.5c0.3,0.5,0.1,1.2-0.4,1.4l0.9,1.6c0.2-0.1,0.3-0.1,0.5-0.1c0.4,0,0.7,0.2,0.9,0.5
							c0.3,0.5,0.1,1.2-0.4,1.4l0.9,1.6c1.1-0.6,2.2-0.9,3.4-0.9c2.3,0,4.6,1.2,5.8,3.4c1.9,3.2,0.8,7.4-2.5,9.2l0.9,1.6
							c0.2-0.1,0.3-0.1,0.5-0.1c0.4,0,0.7,0.2,0.9,0.5c0.3,0.5,0.1,1.2-0.4,1.4l0.9,1.6c0.2-0.1,0.4-0.1,0.5-0.1
							c0.4,0,0.7,0.2,0.9,0.5c0.3,0.5,0.1,1.2-0.4,1.4l0.9,1.6c0.2-0.1,0.3-0.1,0.5-0.1c0.4,0,0.7,0.2,0.9,0.5
							c0.3,0.5,0.1,1.2-0.4,1.4l0.6,1l72.1-41.6l-0.6-1c-0.2,0.1-0.3,0.1-0.5,0.1c-0.4,0-0.7-0.2-0.9-0.5c-0.3-0.5-0.1-1.2,0.4-1.4
							l-0.9-1.6c-0.2,0.1-0.3,0.1-0.5,0.1c-0.4,0-0.7-0.2-0.9-0.5c-0.3-0.5-0.1-1.2,0.4-1.4l-0.9-1.6c-0.2,0.1-0.3,0.1-0.5,0.1
							c-0.4,0-0.7-0.2-0.9-0.5c-0.3-0.5-0.1-1.2,0.4-1.4l-0.9-1.6c-1.1,0.6-2.2,0.9-3.4,0.9c-2.3,0-4.6-1.2-5.8-3.4
							c-1.9-3.2-0.8-7.4,2.5-9.2l-0.9-1.6c-0.2,0.1-0.3,0.1-0.5,0.1c-0.4,0-0.7-0.2-0.9-0.5c-0.3-0.5-0.1-1.2,0.4-1.4l-0.9-1.6
							c-0.2,0.1-0.3,0.1-0.5,0.1c-0.4,0-0.7-0.2-0.9-0.5c-0.3-0.5-0.1-1.1,0.4-1.4l-0.9-1.6c-0.2,0.1-0.3,0.1-0.5,0.1
							c-0.4,0-0.7-0.2-0.9-0.5c-0.3-0.5-0.1-1.2,0.4-1.4L344.2,9L344.2,9z M301.1,75.3l-16.1-27.8L335,18.6l16.1,27.8L301.1,75.3
							L301.1,75.3z"/>
					</g>
				</g>
			</g>
			<g>
				<path class="st0" d="M309.3,39.1l1.3,2.2l-16.5,9.5l-1.3-2.2L309.3,39.1 M309.7,37.7l-18.3,10.5l2.3,3.9L312,41.7L309.7,37.7
					L309.7,37.7z"/>
			</g>
			<g>
				<path class="st0" d="M312.9,45.7l0.3,0.5l-16.3,9.4l-0.3-0.5L312.9,45.7 M313.2,44.3l-18.1,10.4l1.3,2.3l18.1-10.4L313.2,44.3
					L313.2,44.3z"/>
			</g>
			<g>
				<path class="st0" d="M315.3,50l0.3,0.5l-16.3,9.4l-0.3-0.5L315.3,50 M315.7,48.6L297.6,59l1.3,2.3L317,50.9L315.7,48.6
					L315.7,48.6z"/>
			</g>
			<g>
				<path class="st0" d="M317.8,54.3l0.3,0.5l-16.3,9.4l-0.3-0.5L317.8,54.3 M318.2,52.9l-18.1,10.4l1.3,2.3l18.1-10.4L318.2,52.9
					L318.2,52.9z"/>
			</g>
			<g>
				<path class="st0" d="M316.3,60.9l0.3,0.5l-12.3,7.1L304,68L316.3,60.9 M316.6,59.5l-14,8.1l1.3,2.3l14-8.1L316.6,59.5
					L316.6,59.5z"/>
			</g>
		</g>
		<path class="st1" d="M323.2,51.4c0.6,1,1.5,1.6,2.6,1.8l1.1,2c0.4,0.6,1.1,0.8,1.8,0.5l1.1-0.6c0.6-0.4,0.8-1.1,0.5-1.8l-0.6-1.1
			l9-5.2l0.6,1.1c0.4,0.6,1.1,0.8,1.8,0.5l1.1-0.6c0.6-0.4,0.8-1.1,0.5-1.8l-1.1-2c0.3-1,0.3-2.1-0.3-3.1l-6.5-11.2
			c-2.3-3.9-6.6-2.2-11.5,0.7s-8.6,5.7-6.4,9.6L323.2,51.4z M327.7,50.2c-0.9,0.5-2.1,0.2-2.6-0.7s-0.2-2.1,0.7-2.6s2.1-0.2,2.6,0.7
			C329,48.5,328.7,49.7,327.7,50.2z M337.8,44.4c-0.9,0.5-2.1,0.2-2.6-0.7c-0.5-0.9-0.2-2.1,0.7-2.6s2.1-0.2,2.6,0.7
			S338.7,43.9,337.8,44.4z M335.6,36.7l-13.4,7.8l-3.2-5.6l13.4-7.8L335.6,36.7z"/>
	</g>
	<g>
		<g>
			<path class="st0" d="M449,1.5c3.3,0,6,2.7,6,6v78.9c0,3.3-2.7,6-6,6h-33c-3.3,0-6-2.7-6-6V7.5c0-3.3,2.7-6,6-6H449 M424.8,9.5
				h15.5c1.3,0,2.2-0.9,2.2-2.2s-0.9-2.2-2.2-2.2h-15.5c-1.3,0-2.2,0.9-2.2,2.2S423.5,9.5,424.8,9.5 M411.4,80.1h1h40.3h1v-1V13.3
				v-1h-1h-40.3h-1v1v65.8V80.1 M432.5,91.5c2.9,0,5.2-2.3,5.2-5.2s-2.3-5.2-5.2-5.2s-5.2,2.3-5.2,5.2S429.6,91.5,432.5,91.5
				 M449,0.5h-33c-3.9,0-7,3.2-7,7v78.9c0,3.9,3.2,7,7,7h33c3.9,0,7-3.2,7-7V7.5C456,3.7,452.9,0.5,449,0.5L449,0.5z M424.8,8.5
				c-0.7,0-1.2-0.5-1.2-1.2s0.5-1.2,1.2-1.2h15.5c0.7,0,1.2,0.5,1.2,1.2s-0.5,1.2-1.2,1.2H424.8L424.8,8.5z M412.4,79.1V13.3h40.3
				c0,0.1,0,65.8,0,65.8H412.4L412.4,79.1z M432.5,90.5c-2.3,0-4.2-1.9-4.2-4.2c0-2.3,1.9-4.2,4.2-4.2c2.3,0,4.2,1.9,4.2,4.2
				C436.7,88.6,434.8,90.5,432.5,90.5L432.5,90.5z"/>
		</g>
		<g>
			<g>
				<g>
					<path class="st0" d="M448.4,30.3h-11.2v11.2h11.2V30.3L448.4,30.3z M439,39.7v-7.6h7.6v7.6H439L439,39.7z"/>
				</g>
			</g>
			<g>
				<g>
					<path class="st0" d="M444.3,34.5v2.9h-2.9v-2.9H444.3 M445.3,33.5h-4.9v4.9h4.9V33.5L445.3,33.5z"/>
				</g>
			</g>
			<g>
				<g>
					<path class="st0" d="M427.7,30.3h-11.2v11.2h11.2V30.3L427.7,30.3z M418.3,39.7v-7.6h7.6v7.6H418.3L418.3,39.7z"/>
				</g>
			</g>
			<g>
				<g>
					<path class="st0" d="M423.6,34.5v2.9h-2.9v-2.9H423.6 M424.6,33.5h-4.9v4.9h4.9V33.5L424.6,33.5z"/>
				</g>
			</g>
			<g>
				<g>
					<path class="st0" d="M427.7,51.1h-11.2v11.2h11.2V51.1L427.7,51.1z M418.3,60.4v-7.6h7.6v7.6H418.3L418.3,60.4z"/>
				</g>
			</g>
			<g>
				<g>
					<path class="st0" d="M423.6,55.2v2.9h-2.9v-2.9H423.6 M424.6,54.2h-4.9v4.9h4.9V54.2L424.6,54.2z"/>
				</g>
			</g>
			<g>
				<g>
					<polygon class="st0" points="424,43.4 422.7,43.4 422.1,43.4 421.4,43.4 420.2,43.4 418.3,43.4 418.3,45.3 420.2,45.3 
						420.2,47.2 420.2,49.1 422.1,49.1 422.1,47.2 422.1,45.3 422.7,45.3 424,45.3 424,43.4 					"/>
				</g>
			</g>
			<g>
				<g>
					<polygon class="st0" points="427.8,43.4 425.9,43.4 425.9,45.3 424,45.3 424,47.2 424,49.1 425.9,49.1 425.9,47.2 427.8,47.2 
						427.8,45.3 427.8,43.4 					"/>
				</g>
			</g>
			<g>
				<g>
					<polygon class="st0" points="429.7,47.2 427.8,47.2 427.8,49.1 429.7,49.1 429.7,47.2 					"/>
				</g>
			</g>
			<g>
				<g>
					<polygon class="st0" points="431.6,41.5 429.7,41.5 429.7,43.4 431.6,43.4 431.6,41.5 					"/>
				</g>
			</g>
			<g>
				<g>
					<polygon class="st0" points="431.5,54.7 429.7,54.7 429.7,56.6 429.7,58.5 430.7,58.5 431.5,58.5 433.4,58.5 433.4,56.6 
						431.5,56.6 431.5,54.7 					"/>
				</g>
			</g>
			<g>
				<g>
					<polygon class="st0" points="441,56.6 439.9,56.6 439.1,56.6 437.2,56.6 437.2,58.5 439.1,58.5 439.9,58.5 441,58.5 441,56.6 
											"/>
				</g>
			</g>
			<g>
				<g>
					<polygon class="st0" points="433.4,50.9 432.2,50.9 431.5,50.9 429.7,50.9 429.7,52.8 431.5,52.8 431.5,54.7 433.4,54.7 
						433.4,52.8 433.4,50.9 					"/>
				</g>
			</g>
			<g>
				<g>
					<polygon class="st0" points="435.3,35.9 433.4,35.9 433.4,37.8 435.3,37.8 435.3,35.9 					"/>
				</g>
			</g>
			<g>
				<g>
					<polygon class="st0" points="433.4,32.1 431.5,32.1 431.5,34 429.7,34 429.7,35.9 429.7,37.7 429.7,39.6 430.1,39.6 
						431.5,39.6 431.5,41.5 432.5,41.5 433.4,41.5 435.3,41.5 435.3,39.6 433.4,39.6 433.4,37.7 431.5,37.7 431.5,35.9 433.4,35.9 
						433.4,34 433.4,32.1 					"/>
				</g>
			</g>
			<g>
				<g>
					<polygon class="st0" points="437.2,43.4 435.3,43.4 435.3,45.3 437.2,45.3 437.2,43.4 					"/>
				</g>
			</g>
			<g>
				<g>
					<polygon class="st0" points="437.2,54.7 436,54.7 435.3,54.7 433.4,54.7 433.4,56.6 435.3,56.6 436,56.6 437.2,56.6 
						437.2,54.7 					"/>
				</g>
			</g>
			<g>
				<g>
					<polygon class="st0" points="439.1,45.3 437.2,45.3 437.2,47.2 439.1,47.2 439.1,45.3 					"/>
				</g>
			</g>
			<g>
				<g>
					<path class="st0" d="M434.3,46.3v0.5v0.4v0.9h-0.9h-0.8h-0.1v-0.9v-0.9h0.9H434.3 M433.4,43.4h-1.9v1.9v1.9v1.9h1.1h0.8v1.8
						h1.2h0.7v1.9h1.9v-1.9h1.9v-1.8h-1.9h-1.9v-1.9v-0.4v-1.5h-1.9V43.4L433.4,43.4z"/>
				</g>
			</g>
			<g>
				<g>
					<polygon class="st0" points="444.7,43.4 443.6,43.4 442.9,43.4 441,43.4 439.1,43.4 439.1,45.3 441,45.3 441,47.2 442.9,47.2 
						442.9,45.3 443.6,45.3 444.7,45.3 444.7,43.4 					"/>
				</g>
			</g>
			<g>
				<g>
					<polygon class="st0" points="444.7,47.2 442.9,47.2 442.9,49.1 441,49.1 441,50.9 442.9,50.9 444.7,50.9 444.7,49.4 
						444.7,49.1 444.7,47.2 					"/>
				</g>
			</g>
			<g>
				<g>
					<path class="st0" d="M443.7,53.8v0.9v0.9h-0.3h-0.5H442v-0.4v-0.5v-0.9h0.9H443.7L443.7,53.8 M444.7,52.8h-1.1h-0.7h-1.4H441
						h-1.9v1.9h1.9v0.5v1.4h1.9h0.5h1.3v-1.9V52.8L444.7,52.8z"/>
				</g>
			</g>
			<g>
				<g>
					<polygon class="st0" points="431.6,30.2 429.7,30.2 429.7,32.1 431.6,32.1 431.6,30.2 					"/>
				</g>
			</g>
			<g>
				<g>
					<polygon class="st0" points="435.3,30.2 433.4,30.2 433.4,32.1 435.3,32.1 435.3,30.2 					"/>
				</g>
			</g>
			<g>
				<g>
					<polygon class="st0" points="448.5,43.4 446.6,43.4 446.6,45.3 446.6,47.2 448.5,47.2 448.5,45.3 448.5,43.4 					"/>
				</g>
			</g>
			<g>
				<g>
					<polygon class="st0" points="448.5,49.1 446.6,49.1 446.6,50.9 444.7,50.9 444.7,52.8 446.6,52.8 446.6,54.7 448.5,54.7 
						448.5,52.8 448.5,50.9 448.5,49.1 					"/>
				</g>
			</g>
			<g>
				<g>
					<polygon class="st0" points="448.5,58.5 446.6,58.5 446.6,60.4 446.6,62.3 448.5,62.3 448.5,60.4 448.5,58.5 					"/>
				</g>
			</g>
			<g>
				<g>
					<polygon class="st0" points="433.4,60.4 431.5,60.4 429.7,60.4 429.7,62.3 431.5,62.3 433.4,62.3 433.4,60.4 					"/>
				</g>
			</g>
			<g>
				<g>
					<polygon class="st0" points="437.2,60.4 435.3,60.4 435.3,62.3 437.2,62.3 437.2,60.4 					"/>
				</g>
			</g>
			<g>
				<g>
					<polygon class="st0" points="442.9,58.5 441,58.5 441,60 441,60.4 441,62.3 442.4,62.3 442.9,62.3 444.7,62.3 444.7,60.4 
						442.9,60.4 442.9,60 442.9,58.5 					"/>
				</g>
			</g>
			<g>
				<g>
					<polygon class="st0" points="418.4,47.2 416.5,47.2 416.5,49.1 418.4,49.1 418.4,47.2 					"/>
				</g>
			</g>
		</g>
	</g>
	<g>
		<path class="st0" d="M377.9,42.2h17.1v3.2h-17.1V42.2z M377.9,48.5h17.1v3.2h-17.1V48.5z"/>
	</g>
	<path class="st0" d="M113,55v-6.5h-6.5v-3.2h6.5v-6.4h3.1v6.4h6.5v3.2H116V55H113z"/>
	<path class="st0" d="M248.7,55v-6.5h-6.5v-3.2h6.5v-6.4h3.1v6.4h6.5v3.2h-6.5V55H248.7z"/>
</g>
</svg>
